<?xml version="1.0" encoding="UTF-8"?>
<svg id="Layer_1" data-name="Layer 1" xmlns="http://www.w3.org/2000/svg" xmlns:xlink="http://www.w3.org/1999/xlink" viewBox="0 0 1028 340.85">
  <defs>
    <style>
      .cls-1 {
        fill: url(#linear-gradient);
      }
    </style>
    <linearGradient id="linear-gradient" x1="0" y1="170.43" x2="536.36" y2="170.43" gradientUnits="userSpaceOnUse">
      <stop offset=".05" stop-color="#23e451"/>
      <stop offset="1" stop-color="#fdde00"/>
    </linearGradient>
  </defs>
  <g>
    <path d="m685.64,122.23h-13.37l-3.18-14.04c-5.57,6.35-11.14,10.75-16.71,13.2-5.57,2.45-11.98,3.68-19.22,3.68-8.92,0-16.91-1.65-23.98-4.93-7.08-3.29-13.07-7.77-17.97-13.45-4.9-5.68-8.66-12.31-11.28-19.89-2.62-7.58-3.93-15.65-3.93-24.24s1.31-16.49,3.93-24.07c2.62-7.58,6.38-14.21,11.28-19.89,4.9-5.68,10.89-10.2,17.97-13.54,7.07-3.34,15.07-5.01,23.98-5.01,6.46,0,12.62.87,18.47,2.59,5.85,1.73,11.06,4.29,15.63,7.69,4.57,3.4,8.36,7.66,11.37,12.79,3.01,5.13,4.9,11.03,5.68,17.72h-20.39c-.56-3.9-1.76-7.32-3.59-10.28-1.84-2.95-4.15-5.43-6.94-7.44-2.79-2.01-5.91-3.51-9.36-4.51-3.46-1-7.08-1.5-10.86-1.5-6.35,0-11.84,1.28-16.46,3.84-4.63,2.56-8.39,5.99-11.28,10.28-2.9,4.29-5.04,9.17-6.43,14.63-1.4,5.46-2.09,11.03-2.09,16.71s.69,11.26,2.09,16.72c1.39,5.46,3.54,10.34,6.43,14.62,2.9,4.29,6.66,7.72,11.28,10.28,4.62,2.56,10.11,3.84,16.46,3.84,5.35.11,10.08-.58,14.21-2.09,4.12-1.5,7.6-3.68,10.45-6.52s4.99-6.32,6.43-10.45c1.45-4.12,2.23-8.69,2.34-13.71h-31.76v-15.88h50.81v62.85Z"/>
    <path d="m706.69,2.89h85.91v18.05h-65.02v31.26h60.17v17.05h-60.17v34.93h66.19v18.05h-87.08V2.89Z"/>
    <path d="m842.24,2.89h22.23l45.96,119.34h-22.4l-11.2-31.59h-47.64l-11.2,31.59h-21.56L842.24,2.89Zm-7.35,71.87h36.44l-17.88-51.31h-.5l-18.05,51.31Z"/>
    <path d="m920.13,2.89h52.65c8.47,0,15.38,1.23,20.73,3.68,5.35,2.45,9.47,5.52,12.37,9.19,2.9,3.68,4.87,7.69,5.93,12.03,1.06,4.35,1.59,8.36,1.59,12.03s-.53,7.66-1.59,11.95c-1.06,4.29-3.04,8.27-5.93,11.95-2.9,3.68-7.02,6.72-12.37,9.11-5.35,2.4-12.26,3.59-20.73,3.59h-31.76v45.8h-20.89V2.89Zm20.89,56.49h30.59c2.34,0,4.74-.33,7.19-1,2.45-.67,4.71-1.75,6.77-3.26,2.06-1.5,3.73-3.51,5.01-6.02,1.28-2.51,1.92-5.65,1.92-9.44s-.56-7.13-1.67-9.69c-1.12-2.56-2.62-4.6-4.51-6.1-1.9-1.5-4.07-2.53-6.52-3.09-2.45-.56-5.07-.83-7.86-.83h-30.92v39.44Z"/>
  </g>
  <path d="m1028,11.24c0,1.15-.2,2.2-.61,3.14-.4.95-.95,1.75-1.64,2.42-.69.67-1.49,1.19-2.4,1.56-.91.37-1.87.56-2.87.56-1.11,0-2.13-.2-3.05-.59-.92-.39-1.72-.93-2.38-1.61-.66-.68-1.18-1.5-1.56-2.43s-.56-1.95-.56-3.05c0-1.15.2-2.2.61-3.14.4-.94.95-1.75,1.64-2.42s1.5-1.19,2.41-1.56c.92-.37,1.88-.56,2.9-.56s1.95.19,2.87.56c.91.37,1.71.89,2.4,1.56s1.24,1.48,1.64,2.42c.4.95.61,1.99.61,3.14Zm-1.64,0c0-.93-.15-1.79-.45-2.57s-.72-1.45-1.25-2.01c-.53-.56-1.16-1-1.87-1.3-.71-.31-1.48-.46-2.3-.46s-1.61.15-2.33.46c-.72.31-1.34.74-1.88,1.3-.53.56-.95,1.23-1.25,2.01s-.45,1.64-.45,2.57c0,.88.14,1.7.41,2.46.27.77.67,1.44,1.18,2.01.51.57,1.13,1.03,1.86,1.37.73.34,1.55.5,2.46.5.82,0,1.59-.15,2.3-.46.71-.31,1.33-.74,1.87-1.3s.95-1.23,1.25-2,.45-1.63.45-2.58Zm-7.39,4.39h-1.4V7.13h3.22c1.03,0,1.8.19,2.32.57.52.38.78,1.01.78,1.87,0,.77-.21,1.33-.64,1.68-.42.36-.95.57-1.58.64l2.38,3.74h-1.58l-2.2-3.63h-1.32v3.63Zm1.56-4.83c.26,0,.51-.01.75-.03.24-.02.45-.08.63-.17.18-.1.32-.23.43-.4.11-.17.16-.41.16-.73,0-.26-.06-.47-.17-.62-.12-.15-.26-.27-.44-.35-.18-.08-.38-.13-.6-.15-.22-.02-.43-.03-.64-.03h-1.68v2.48h1.56Z"/>
  <g>
    <path d="m600.63,173.23h-1.81l-.43-1.9c-.75.86-1.51,1.46-2.26,1.79-.75.33-1.62.5-2.6.5-1.21,0-2.29-.22-3.24-.67-.96-.44-1.77-1.05-2.43-1.82s-1.17-1.67-1.53-2.69c-.35-1.02-.53-2.12-.53-3.28s.18-2.23.53-3.26c.35-1.02.86-1.92,1.53-2.69.66-.77,1.47-1.38,2.43-1.83.96-.45,2.04-.68,3.24-.68.87,0,1.71.12,2.5.35.79.23,1.5.58,2.11,1.04.62.46,1.13,1.04,1.54,1.73.41.69.66,1.49.77,2.4h-2.76c-.08-.53-.24-.99-.49-1.39s-.56-.73-.94-1.01-.8-.47-1.27-.61c-.47-.13-.96-.2-1.47-.2-.86,0-1.6.17-2.23.52-.63.35-1.14.81-1.53,1.39-.39.58-.68,1.24-.87,1.98-.19.74-.28,1.49-.28,2.26s.09,1.52.28,2.26c.19.74.48,1.4.87,1.98.39.58.9,1.04,1.53,1.39.63.35,1.37.52,2.23.52.72.02,1.36-.08,1.92-.28s1.03-.5,1.41-.88c.38-.39.67-.86.87-1.41s.3-1.17.32-1.85h-4.3v-2.15h6.87v8.5Z"/>
    <path d="m604.54,157.09h2.58v16.14h-2.58v-16.14Z"/>
    <path d="m616.4,173.55c-.94,0-1.77-.15-2.5-.46-.73-.31-1.35-.73-1.85-1.28-.5-.54-.89-1.19-1.15-1.94-.26-.75-.4-1.58-.4-2.49s.13-1.71.4-2.46c.26-.75.65-1.4,1.15-1.94.51-.54,1.12-.97,1.85-1.28.73-.31,1.56-.46,2.5-.46s1.77.16,2.5.46c.73.31,1.35.73,1.85,1.28.5.54.89,1.19,1.15,1.94.26.75.4,1.58.4,2.46s-.13,1.73-.4,2.49c-.26.75-.65,1.4-1.15,1.94-.51.54-1.12.97-1.85,1.28-.73.31-1.56.46-2.5.46Zm0-2.03c.57,0,1.07-.12,1.49-.36.42-.24.77-.56,1.04-.95s.47-.83.6-1.32c.13-.49.19-.99.19-1.5s-.06-.99-.19-1.49-.33-.94-.6-1.32c-.27-.39-.62-.7-1.04-.94-.42-.24-.92-.36-1.49-.36s-1.07.12-1.49.36c-.42.24-.77.55-1.04.94-.27.38-.47.82-.6,1.32s-.19.99-.19,1.49.06,1.01.19,1.5c.13.49.33.93.6,1.32.27.39.62.71,1.04.95.42.24.92.36,1.49.36Z"/>
    <path d="m625.65,157.09h2.58v5.97h.04c.18-.29.4-.54.66-.77.26-.23.54-.42.85-.58.31-.16.63-.28.97-.36.34-.08.67-.13,1.01-.13.92,0,1.72.16,2.41.49.69.32,1.25.77,1.71,1.33.45.56.79,1.22,1.02,1.98.23.75.34,1.56.34,2.42,0,.78-.1,1.55-.31,2.28-.2.74-.51,1.39-.93,1.96-.42.56-.94,1.02-1.57,1.36-.63.34-1.38.51-2.24.51-.39,0-.79-.03-1.19-.08-.4-.05-.78-.15-1.14-.3-.36-.15-.69-.35-.98-.59-.29-.24-.54-.56-.73-.95h-.04v1.6h-2.44v-16.14Zm9,10.31c0-.53-.07-1.04-.2-1.54-.13-.5-.34-.94-.61-1.32-.27-.39-.61-.69-1.02-.93s-.87-.35-1.4-.35c-1.08,0-1.9.38-2.45,1.13-.55.75-.83,1.76-.83,3.01,0,.59.07,1.13.21,1.64.14.51.36.94.64,1.3.29.36.63.65,1.03.86s.86.32,1.39.32c.59,0,1.09-.12,1.49-.36.41-.24.74-.55,1.01-.94.26-.38.45-.82.57-1.31.11-.49.17-.99.17-1.5Z"/>
    <path d="m650.32,170.63c0,.32.04.54.13.68.08.14.24.2.49.2h.27c.11,0,.23-.01.36-.04v1.79c-.09.03-.21.06-.35.1-.14.04-.29.07-.44.1-.15.03-.3.05-.45.07s-.28.02-.38.02c-.53,0-.97-.11-1.31-.32-.35-.21-.57-.58-.68-1.11-.51.5-1.14.86-1.89,1.08s-1.47.34-2.16.34c-.53,0-1.03-.07-1.51-.21-.48-.14-.91-.35-1.28-.63-.37-.28-.66-.63-.88-1.06-.22-.43-.33-.93-.33-1.5,0-.72.13-1.31.39-1.76.26-.45.61-.81,1.04-1.06.43-.26.91-.44,1.45-.56.54-.11,1.07-.2,1.62-.26.47-.09.91-.15,1.33-.19.42-.04.8-.1,1.12-.19.32-.09.58-.23.77-.42s.28-.47.28-.85c0-.33-.08-.6-.24-.81-.16-.21-.36-.37-.59-.49-.23-.11-.49-.19-.78-.23s-.56-.06-.81-.06c-.72,0-1.32.15-1.79.45-.47.3-.73.77-.79,1.4h-2.58c.04-.75.22-1.38.54-1.88.32-.5.72-.9,1.21-1.2.49-.3,1.04-.51,1.66-.63s1.25-.18,1.9-.18c.57,0,1.14.06,1.69.18s1.06.32,1.5.59c.45.27.8.62,1.07,1.05.27.43.41.95.41,1.57v6.01Zm-2.58-3.26c-.39.26-.87.41-1.45.46-.57.05-1.15.13-1.72.24-.27.04-.53.11-.79.19-.26.08-.48.2-.68.34-.2.14-.35.33-.46.56-.11.23-.17.52-.17.85,0,.29.08.53.25.72.17.2.37.35.6.46.23.11.49.19.77.24.28.04.53.07.76.07.29,0,.6-.04.93-.11s.64-.2.94-.39c.29-.18.54-.41.73-.69.2-.28.29-.62.29-1.03v-1.92Z"/>
    <path d="m654.3,157.09h2.58v16.14h-2.58v-16.14Z"/>
    <path d="m668.58,157.09h11.62v2.44h-8.79v4.23h8.14v2.31h-8.14v4.72h8.95v2.44h-11.78v-16.14Z"/>
    <path d="m683.59,161.54h2.44v1.72l.04.04c.39-.65.9-1.16,1.54-1.53.63-.37,1.33-.56,2.1-.56,1.28,0,2.29.33,3.03.99.74.66,1.11,1.66,1.11,2.98v8.03h-2.58v-7.35c-.03-.92-.23-1.59-.59-2-.36-.41-.93-.62-1.69-.62-.44,0-.83.08-1.18.24-.35.16-.64.38-.88.66-.24.28-.43.61-.57.98-.13.38-.2.78-.2,1.2v6.89h-2.58v-11.69Z"/>
    <path d="m696.55,161.54h2.8l2.96,8.97h.04l2.85-8.97h2.67l-4.18,11.69h-2.89l-4.25-11.69Z"/>
    <path d="m710.63,157.09h2.58v2.44h-2.58v-2.44Zm0,4.45h2.58v11.69h-2.58v-11.69Z"/>
    <path d="m717.14,161.54h2.42v2.26h.04c.08-.32.22-.63.44-.93.22-.3.48-.58.79-.82s.65-.45,1.03-.6c.38-.15.76-.23,1.15-.23.3,0,.51,0,.62.02.11.01.23.03.35.04v2.49c-.18-.03-.37-.06-.56-.08s-.37-.03-.55-.03c-.44,0-.85.09-1.23.26-.38.17-.72.43-1.01.77-.29.34-.51.76-.68,1.25-.17.5-.25,1.07-.25,1.72v5.56h-2.58v-11.69Z"/>
    <path d="m731.18,173.55c-.94,0-1.77-.15-2.5-.46-.73-.31-1.35-.73-1.85-1.28-.5-.54-.89-1.19-1.15-1.94-.26-.75-.4-1.58-.4-2.49s.13-1.71.4-2.46c.26-.75.65-1.4,1.15-1.94.51-.54,1.12-.97,1.85-1.28.73-.31,1.56-.46,2.5-.46s1.77.16,2.5.46c.73.31,1.35.73,1.85,1.28.5.54.89,1.19,1.15,1.94.26.75.4,1.58.4,2.46s-.13,1.73-.4,2.49c-.26.75-.65,1.4-1.15,1.94-.51.54-1.12.97-1.85,1.28-.73.31-1.56.46-2.5.46Zm0-2.03c.57,0,1.07-.12,1.49-.36.42-.24.77-.56,1.04-.95s.47-.83.6-1.32c.13-.49.19-.99.19-1.5s-.06-.99-.19-1.49-.33-.94-.6-1.32c-.27-.39-.62-.7-1.04-.94-.42-.24-.92-.36-1.49-.36s-1.07.12-1.49.36c-.42.24-.77.55-1.04.94-.27.38-.47.82-.6,1.32s-.19.99-.19,1.49.06,1.01.19,1.5c.13.49.33.93.6,1.32.27.39.62.71,1.04.95.42.24.92.36,1.49.36Z"/>
    <path d="m740.36,161.54h2.44v1.72l.04.04c.39-.65.9-1.16,1.54-1.53.63-.37,1.33-.56,2.1-.56,1.28,0,2.29.33,3.03.99.74.66,1.11,1.66,1.11,2.98v8.03h-2.58v-7.35c-.03-.92-.23-1.59-.59-2-.36-.41-.93-.62-1.69-.62-.44,0-.83.08-1.18.24-.35.16-.64.38-.88.66-.24.28-.43.61-.57.98-.13.38-.2.78-.2,1.2v6.89h-2.58v-11.69Z"/>
    <path d="m754.47,161.54h2.44v1.63h.07c.2-.29.41-.55.63-.79.23-.24.48-.44.76-.61.28-.17.6-.3.96-.4.36-.1.78-.15,1.24-.15.71,0,1.37.16,1.98.47.61.32,1.04.81,1.3,1.47.44-.6.94-1.08,1.51-1.42.57-.35,1.29-.52,2.15-.52,1.24,0,2.2.3,2.88.9s1.03,1.61,1.03,3.03v8.07h-2.58v-6.83c0-.47-.01-.89-.04-1.28-.03-.39-.12-.72-.26-.99-.14-.28-.36-.49-.64-.64-.29-.15-.68-.22-1.18-.22-.87,0-1.51.27-1.9.81s-.59,1.31-.59,2.31v6.85h-2.58v-7.51c0-.81-.15-1.43-.44-1.84s-.83-.62-1.62-.62c-.33,0-.65.07-.96.2-.31.14-.58.33-.81.59-.23.26-.42.57-.57.95-.14.38-.21.81-.21,1.29v6.94h-2.58v-11.69Z"/>
    <path d="m777.28,168.05c0,.45.06.89.19,1.31s.32.79.58,1.11c.26.32.58.57.97.76s.86.28,1.4.28c.75,0,1.36-.16,1.82-.49.46-.32.8-.81,1.03-1.46h2.44c-.14.63-.37,1.2-.7,1.7s-.73.92-1.2,1.25c-.47.34-.99.6-1.57.77s-1.19.26-1.82.26c-.92,0-1.73-.15-2.44-.45-.71-.3-1.31-.72-1.8-1.27-.49-.54-.86-1.19-1.11-1.94s-.37-1.58-.37-2.49c0-.83.13-1.62.4-2.36.26-.75.64-1.4,1.13-1.97s1.08-1.01,1.77-1.35c.69-.33,1.48-.5,2.35-.5.92,0,1.74.19,2.47.58.73.38,1.34.89,1.82,1.53.48.63.83,1.36,1.05,2.18.22.82.27,1.67.17,2.54h-8.59Zm6.01-1.69c-.03-.41-.12-.8-.26-1.18s-.34-.7-.59-.98c-.25-.28-.55-.5-.9-.68-.35-.17-.75-.26-1.19-.26s-.86.08-1.23.24c-.37.16-.69.38-.95.66-.26.28-.47.61-.63.98-.16.38-.24.78-.26,1.22h6.01Z"/>
    <path d="m788.97,161.54h2.44v1.72l.04.04c.39-.65.9-1.16,1.54-1.53.63-.37,1.33-.56,2.1-.56,1.28,0,2.29.33,3.03.99.74.66,1.11,1.66,1.11,2.98v8.03h-2.58v-7.35c-.03-.92-.23-1.59-.59-2-.36-.41-.93-.62-1.69-.62-.44,0-.83.08-1.18.24-.35.16-.64.38-.88.66-.24.28-.43.61-.57.98-.13.38-.2.78-.2,1.2v6.89h-2.58v-11.69Z"/>
    <path d="m801.9,161.54h1.94v-3.5h2.58v3.5h2.33v1.92h-2.33v6.24c0,.27.01.51.03.7s.07.36.16.5c.08.13.21.24.37.3s.39.1.68.1c.18,0,.36,0,.54-.01.18,0,.36-.03.54-.08v1.99c-.29.03-.56.06-.84.09-.27.03-.55.04-.84.04-.68,0-1.22-.06-1.64-.19s-.74-.32-.97-.57c-.23-.25-.39-.56-.47-.94s-.13-.81-.15-1.29v-6.9h-1.94v-1.92Z"/>
    <path d="m821.52,170.63c0,.32.04.54.13.68.08.14.24.2.49.2h.27c.11,0,.23-.01.36-.04v1.79c-.09.03-.21.06-.35.1-.14.04-.29.07-.44.1-.15.03-.3.05-.45.07s-.28.02-.38.02c-.53,0-.97-.11-1.31-.32-.35-.21-.57-.58-.68-1.11-.51.5-1.14.86-1.89,1.08s-1.47.34-2.16.34c-.53,0-1.03-.07-1.51-.21-.48-.14-.91-.35-1.28-.63-.37-.28-.66-.63-.88-1.06-.22-.43-.33-.93-.33-1.5,0-.72.13-1.31.39-1.76.26-.45.61-.81,1.04-1.06.43-.26.91-.44,1.45-.56.54-.11,1.07-.2,1.62-.26.47-.09.91-.15,1.33-.19.42-.04.8-.1,1.12-.19.32-.09.58-.23.77-.42s.28-.47.28-.85c0-.33-.08-.6-.24-.81-.16-.21-.36-.37-.59-.49-.23-.11-.49-.19-.78-.23s-.56-.06-.81-.06c-.72,0-1.32.15-1.79.45-.47.3-.73.77-.79,1.4h-2.58c.04-.75.22-1.38.54-1.88.32-.5.72-.9,1.21-1.2.49-.3,1.04-.51,1.66-.63s1.25-.18,1.9-.18c.57,0,1.14.06,1.69.18s1.06.32,1.5.59c.45.27.8.62,1.07,1.05.27.43.41.95.41,1.57v6.01Zm-2.58-3.26c-.39.26-.87.41-1.45.46-.57.05-1.15.13-1.72.24-.27.04-.53.11-.79.19-.26.08-.48.2-.68.34-.2.14-.35.33-.46.56-.11.23-.17.52-.17.85,0,.29.08.53.25.72.17.2.37.35.6.46.23.11.49.19.77.24.28.04.53.07.76.07.29,0,.6-.04.93-.11s.64-.2.94-.39c.29-.18.54-.41.73-.69.2-.28.29-.62.29-1.03v-1.92Z"/>
    <path d="m825.5,157.09h2.58v16.14h-2.58v-16.14Z"/>
    <path d="m844.11,157.09h3.01l6.22,16.14h-3.03l-1.51-4.27h-6.44l-1.51,4.27h-2.92l6.2-16.14Zm-.99,9.72h4.93l-2.42-6.94h-.07l-2.44,6.94Z"/>
    <path d="m857.58,169.48c.08.75.36,1.28.86,1.58.5.3,1.09.45,1.79.45.24,0,.52-.02.82-.06s.6-.11.87-.21.49-.26.67-.46c.17-.2.25-.47.24-.8-.02-.33-.14-.6-.36-.81-.22-.21-.52-.38-.87-.51s-.76-.24-1.21-.33c-.45-.09-.91-.19-1.38-.3-.48-.11-.95-.23-1.39-.38s-.84-.35-1.2-.61c-.35-.26-.64-.58-.85-.98-.21-.4-.32-.89-.32-1.48,0-.63.15-1.16.46-1.59.31-.43.7-.78,1.17-1.04.47-.26,1-.45,1.58-.55.58-.11,1.13-.16,1.66-.16.6,0,1.18.06,1.73.19.55.13,1.05.34,1.49.62.44.29.81.66,1.11,1.12.3.46.48,1.01.56,1.66h-2.69c-.12-.62-.4-1.03-.85-1.24-.45-.21-.95-.32-1.53-.32-.18,0-.39.01-.64.04-.25.03-.48.09-.7.17-.22.08-.4.2-.55.36-.15.16-.23.37-.23.62,0,.32.11.57.33.77.22.2.51.36.86.49s.76.24,1.21.33c.45.09.92.19,1.4.29.47.11.93.23,1.38.38.45.15.85.35,1.21.61.35.26.64.58.86.97.22.39.33.88.33,1.45,0,.69-.16,1.28-.47,1.76-.32.48-.73.87-1.23,1.18-.5.3-1.07.52-1.68.65-.62.14-1.23.2-1.83.2-.74,0-1.42-.08-2.05-.25s-1.17-.42-1.63-.76c-.46-.34-.82-.76-1.08-1.27-.26-.5-.4-1.1-.42-1.8h2.58Z"/>
    <path d="m870.45,169.48c.08.75.36,1.28.86,1.58.5.3,1.09.45,1.79.45.24,0,.52-.02.82-.06s.6-.11.87-.21.49-.26.67-.46c.17-.2.25-.47.24-.8-.02-.33-.14-.6-.36-.81-.22-.21-.52-.38-.87-.51s-.76-.24-1.21-.33c-.45-.09-.91-.19-1.38-.3-.48-.11-.95-.23-1.39-.38s-.84-.35-1.2-.61c-.35-.26-.64-.58-.85-.98-.21-.4-.32-.89-.32-1.48,0-.63.15-1.16.46-1.59.31-.43.7-.78,1.17-1.04.47-.26,1-.45,1.58-.55.58-.11,1.13-.16,1.66-.16.6,0,1.18.06,1.73.19.55.13,1.05.34,1.49.62.44.29.81.66,1.11,1.12.3.46.48,1.01.56,1.66h-2.69c-.12-.62-.4-1.03-.85-1.24-.45-.21-.95-.32-1.53-.32-.18,0-.39.01-.64.04-.25.03-.48.09-.7.17-.22.08-.4.2-.55.36-.15.16-.23.37-.23.62,0,.32.11.57.33.77.22.2.51.36.86.49s.76.24,1.21.33c.45.09.92.19,1.4.29.47.11.93.23,1.38.38.45.15.85.35,1.21.61.35.26.64.58.86.97.22.39.33.88.33,1.45,0,.69-.16,1.28-.47,1.76-.32.48-.73.87-1.23,1.18-.5.3-1.07.52-1.68.65-.62.14-1.23.2-1.83.2-.74,0-1.42-.08-2.05-.25s-1.17-.42-1.63-.76c-.46-.34-.82-.76-1.08-1.27-.26-.5-.4-1.1-.42-1.8h2.58Z"/>
    <path d="m883.38,168.05c0,.45.06.89.19,1.31s.32.79.58,1.11c.26.32.58.57.97.76s.86.28,1.4.28c.75,0,1.36-.16,1.82-.49.46-.32.8-.81,1.03-1.46h2.44c-.14.63-.37,1.2-.7,1.7s-.73.92-1.2,1.25c-.47.34-.99.6-1.57.77s-1.19.26-1.82.26c-.92,0-1.73-.15-2.44-.45-.71-.3-1.31-.72-1.8-1.27-.49-.54-.86-1.19-1.11-1.94s-.37-1.58-.37-2.49c0-.83.13-1.62.4-2.36.26-.75.64-1.4,1.13-1.97s1.08-1.01,1.77-1.35c.69-.33,1.48-.5,2.35-.5.92,0,1.74.19,2.47.58.73.38,1.34.89,1.82,1.53.48.63.83,1.36,1.05,2.18.22.82.27,1.67.17,2.54h-8.59Zm6.01-1.69c-.03-.41-.12-.8-.26-1.18s-.34-.7-.59-.98c-.25-.28-.55-.5-.9-.68-.35-.17-.75-.26-1.19-.26s-.86.08-1.23.24c-.37.16-.69.38-.95.66-.26.28-.47.61-.63.98-.16.38-.24.78-.26,1.22h6.01Z"/>
    <path d="m893.89,161.54h1.94v-3.5h2.58v3.5h2.33v1.92h-2.33v6.24c0,.27.01.51.03.7s.07.36.16.5c.08.13.21.24.37.3s.39.1.68.1c.18,0,.36,0,.54-.01.18,0,.36-.03.54-.08v1.99c-.29.03-.56.06-.84.09-.27.03-.55.04-.84.04-.68,0-1.22-.06-1.64-.19s-.74-.32-.97-.57c-.23-.25-.39-.56-.47-.94s-.13-.81-.15-1.29v-6.9h-1.94v-1.92Z"/>
    <path d="m911.5,157.09h7.12c1.15,0,2.08.17,2.8.5s1.28.75,1.67,1.24.66,1.04.8,1.63c.14.59.21,1.13.21,1.63s-.07,1.04-.21,1.62-.41,1.12-.8,1.62-.95.91-1.67,1.23c-.72.32-1.66.48-2.8.48h-4.3v6.2h-2.83v-16.14Zm2.83,7.64h4.14c.32,0,.64-.04.97-.13.33-.09.64-.24.92-.44.28-.2.5-.47.68-.81.17-.34.26-.76.26-1.28s-.08-.97-.23-1.31c-.15-.35-.35-.62-.61-.83-.26-.2-.55-.34-.88-.42-.33-.08-.69-.11-1.06-.11h-4.18v5.34Z"/>
    <path d="m927.42,157.09h2.58v16.14h-2.58v-16.14Z"/>
    <path d="m943.72,170.63c0,.32.04.54.13.68.08.14.24.2.49.2h.27c.11,0,.23-.01.36-.04v1.79c-.09.03-.21.06-.35.1-.14.04-.29.07-.44.1-.15.03-.3.05-.45.07s-.28.02-.38.02c-.53,0-.97-.11-1.31-.32-.35-.21-.57-.58-.68-1.11-.51.5-1.14.86-1.89,1.08s-1.47.34-2.16.34c-.53,0-1.03-.07-1.51-.21-.48-.14-.91-.35-1.28-.63-.37-.28-.66-.63-.88-1.06-.22-.43-.33-.93-.33-1.5,0-.72.13-1.31.39-1.76.26-.45.61-.81,1.04-1.06.43-.26.91-.44,1.45-.56.54-.11,1.07-.2,1.62-.26.47-.09.91-.15,1.33-.19.42-.04.8-.1,1.12-.19.32-.09.58-.23.77-.42s.28-.47.28-.85c0-.33-.08-.6-.24-.81-.16-.21-.36-.37-.59-.49-.23-.11-.49-.19-.78-.23s-.56-.06-.81-.06c-.72,0-1.32.15-1.79.45-.47.3-.73.77-.79,1.4h-2.58c.04-.75.22-1.38.54-1.88.32-.5.72-.9,1.21-1.2.49-.3,1.04-.51,1.66-.63s1.25-.18,1.9-.18c.57,0,1.14.06,1.69.18s1.06.32,1.5.59c.45.27.8.62,1.07,1.05.27.43.41.95.41,1.57v6.01Zm-2.58-3.26c-.39.26-.87.41-1.45.46-.57.05-1.15.13-1.72.24-.27.04-.53.11-.79.19-.26.08-.48.2-.68.34-.2.14-.35.33-.46.56-.11.23-.17.52-.17.85,0,.29.08.53.25.72.17.2.37.35.6.46.23.11.49.19.77.24.28.04.53.07.76.07.29,0,.6-.04.93-.11s.64-.2.94-.39c.29-.18.54-.41.73-.69.2-.28.29-.62.29-1.03v-1.92Z"/>
    <path d="m946.45,161.54h1.94v-3.5h2.58v3.5h2.33v1.92h-2.33v6.24c0,.27.01.51.03.7s.07.36.16.5c.08.13.21.24.37.3s.39.1.68.1c.18,0,.36,0,.54-.01.18,0,.36-.03.54-.08v1.99c-.29.03-.56.06-.84.09-.27.03-.55.04-.84.04-.68,0-1.22-.06-1.64-.19s-.74-.32-.97-.57c-.23-.25-.39-.56-.47-.94s-.13-.81-.15-1.29v-6.9h-1.94v-1.92Z"/>
    <path d="m955.14,161.54h1.92v-.97c0-.74.09-1.34.27-1.8.18-.46.42-.81.72-1.06.3-.25.64-.41,1.03-.5.39-.08.79-.13,1.21-.13.83,0,1.43.05,1.81.16v2.01c-.17-.05-.34-.08-.53-.1s-.41-.03-.67-.03c-.35,0-.64.08-.89.25s-.37.49-.37.97v1.2h2.19v1.92h-2.19v9.77h-2.58v-9.77h-1.92v-1.92Z"/>
    <path d="m969.9,173.55c-.94,0-1.77-.15-2.5-.46-.73-.31-1.35-.73-1.85-1.28-.5-.54-.89-1.19-1.15-1.94-.26-.75-.4-1.58-.4-2.49s.13-1.71.4-2.46c.26-.75.65-1.4,1.15-1.94.51-.54,1.12-.97,1.85-1.28.73-.31,1.56-.46,2.5-.46s1.77.16,2.5.46c.73.31,1.35.73,1.85,1.28.5.54.89,1.19,1.15,1.94.26.75.4,1.58.4,2.46s-.13,1.73-.4,2.49c-.26.75-.65,1.4-1.15,1.94-.51.54-1.12.97-1.85,1.28-.73.31-1.56.46-2.5.46Zm0-2.03c.57,0,1.07-.12,1.49-.36.42-.24.77-.56,1.04-.95s.47-.83.6-1.32c.13-.49.19-.99.19-1.5s-.06-.99-.19-1.49-.33-.94-.6-1.32c-.27-.39-.62-.7-1.04-.94-.42-.24-.92-.36-1.49-.36s-1.07.12-1.49.36c-.42.24-.77.55-1.04.94-.27.38-.47.82-.6,1.32s-.19.99-.19,1.49.06,1.01.19,1.5c.13.49.33.93.6,1.32.27.39.62.71,1.04.95.42.24.92.36,1.49.36Z"/>
    <path d="m979.08,161.54h2.42v2.26h.04c.08-.32.22-.63.44-.93.22-.3.48-.58.79-.82s.65-.45,1.03-.6c.38-.15.76-.23,1.15-.23.3,0,.51,0,.62.02.11.01.23.03.35.04v2.49c-.18-.03-.37-.06-.56-.08s-.37-.03-.55-.03c-.44,0-.85.09-1.23.26-.38.17-.72.43-1.01.77-.29.34-.51.76-.68,1.25-.17.5-.25,1.07-.25,1.72v5.56h-2.58v-11.69Z"/>
    <path d="m988.16,161.54h2.44v1.63h.07c.2-.29.41-.55.63-.79.23-.24.48-.44.76-.61.28-.17.6-.3.96-.4.36-.1.78-.15,1.24-.15.71,0,1.37.16,1.98.47.61.32,1.04.81,1.3,1.47.44-.6.94-1.08,1.51-1.42.57-.35,1.29-.52,2.15-.52,1.24,0,2.2.3,2.88.9s1.03,1.61,1.03,3.03v8.07h-2.58v-6.83c0-.47-.01-.89-.04-1.28-.03-.39-.12-.72-.26-.99-.14-.28-.36-.49-.64-.64-.29-.15-.68-.22-1.18-.22-.87,0-1.51.27-1.9.81s-.59,1.31-.59,2.31v6.85h-2.58v-7.51c0-.81-.15-1.43-.44-1.84s-.83-.62-1.62-.62c-.33,0-.65.07-.96.2-.31.14-.58.33-.81.59-.23.26-.42.57-.57.95-.14.38-.21.81-.21,1.29v6.94h-2.58v-11.69Z"/>
  </g>
  <path class="cls-1" d="m536.36,0h0S160.13.37,160.13.37h-.01S.03,340.79.03,340.79l-.03.06h0s0,0,0,0h0s0,0,0,0l376.23-.37h.01S536.33.06,536.33.06l.03-.06h0s0,0,0,0h0Zm-195.48,284.81c-63.18,40.15-146.94,21.48-187.09-41.7-40.15-63.18-21.48-146.94,41.7-187.09,63.18-40.15,146.94-21.48,187.09,41.7,40.15,63.18,21.48,146.94-41.7,187.09Z"/>
</svg>